# xmcd
# Track frame offsets:
# 182
# 13997
# 26825
# 40967
# 58215
# 73205
# 90727
# 104970
#
# Disc length: 1573 seconds
# Revision: 0
# Processed by: cddbd v1.4PL0 Copyright (c) Steve Scherf et al.
# Submitted via: VisiTrax 2.9.5.180 - For more info visit www.synapsa.com
#
DISCID=7b062308
DTITLE=Lenora Clare - LENORA CLARE
DYEAR=1992
DGENRE=
TTITLE0=Whose Side Are You On??
TTITLE1=Don´t Come Knockin´
TTITLE2=Finishing Touch
TTITLE3=On This Day
TTITLE4=Deliver Me
TTITLE5=Dera Heart
TTITLE6=Don´t Tell Me No Lies
TTITLE7=When Nightime Falls
EXTD=Canada Country
EXTT0=
EXTT1=
EXTT2=
EXTT3=
EXTT4=
EXTT5=
EXTT6=
EXTT7=
PLAYORDER=
